<?xml version="1.0" encoding="iso-8859-1"?>
<!-- Generator: Adobe Illustrator 19.0.0, SVG Export Plug-In . SVG Version: 6.00 Build 0)  -->
<svg version="1.1" id="Layer_1" xmlns="http://www.w3.org/2000/svg" xmlns:xlink="http://www.w3.org/1999/xlink" x="0px" y="0px"
	 viewBox="0 0 295.239 295.239" style="enable-background:new 0 0 295.239 295.239;" xml:space="preserve">
<g>
	<g>
		<g>
			<path d="M161.904,160.848H33.333v33.333H0v9.524h33.333v47.619H0v9.524h33.333v33.333h128.571v-23.81h76.19v-85.714h-76.19
				V160.848z M152.381,284.657H42.857V170.371h109.524V284.657z M228.572,260.848h-66.667v-28.571h66.667V260.848z M228.571,194.181
				v28.571h-66.667v-28.571H228.571z"/>
			<path d="M271.429,198.943c-13.129,0-23.81,10.681-23.81,23.81c0,13.129,10.681,23.81,23.81,23.81
				c13.129,0,23.81-10.681,23.81-23.81C295.239,209.624,284.557,198.943,271.429,198.943z M271.429,237.038
				c-7.876,0-14.286-6.41-14.286-14.286c0-7.876,6.41-14.286,14.286-14.286c7.876,0,14.286,6.41,14.286,14.286
				C285.715,230.628,279.305,237.038,271.429,237.038z"/>
			<path d="M293.876,168.943l-6.805-6.667c-5.11,5.219-12.357,8.095-20.405,8.095c-15.757,0-28.571-12.814-28.571-28.571
				s12.814-28.571,28.571-28.571c8.048,0,15.295,2.876,20.41,8.095l6.805-6.662c-6.919-7.067-16.581-10.957-27.214-10.957
				c-21.005,0-38.095,17.09-38.095,38.095s17.09,38.095,38.095,38.095C277.295,179.895,286.957,176.01,293.876,168.943z"/>
			<path d="M133.333,141.8c32.648,0,62.21-17.533,78.238-46.067c5.124,2.129,10.824,3.21,17,3.21
				c23.629,0,42.857-19.229,42.857-42.857S252.2,13.229,228.571,13.229c-4.329,0-8.443,0.552-12.295,1.614
				c-2.162-4.714-4.724-9.333-7.7-13.781l-7.914,5.295c7.581,11.324,12.3,23.762,13.652,35.967l9.467-1.048
				c-0.648-5.838-2.01-11.7-3.967-17.49c2.748-0.662,5.667-1.033,8.757-1.033c18.381,0,33.333,14.952,33.333,33.333
				s-14.952,33.333-33.333,33.333c-6.324,0-11.933-1.39-16.667-4.124l-4.39-2.538l-2.257,4.543
				c-13.786,27.743-41.348,44.976-71.924,44.976c-44.638,0-80.952-36.314-80.952-80.952c0-16.1,4.714-31.652,13.629-44.971
				l-7.914-5.295c-9.971,14.89-15.238,32.271-15.238,50.267C42.857,101.214,83.443,141.8,133.333,141.8z"/>
			<path d="M133.333,117.99v-9.524c-31.51,0-57.143-25.633-57.143-57.143h-9.524C66.667,88.086,96.571,117.99,133.333,117.99z"/>
			<rect x="52.381" y="265.61" width="71.429" height="9.524"/>
			<rect x="133.333" y="265.61" width="9.524" height="9.524"/>
			<rect x="52.381" y="179.895" width="9.524" height="9.524"/>
			<rect x="71.429" y="179.895" width="9.524" height="9.524"/>
		</g>
	</g>
</g>
<g>
</g>
<g>
</g>
<g>
</g>
<g>
</g>
<g>
</g>
<g>
</g>
<g>
</g>
<g>
</g>
<g>
</g>
<g>
</g>
<g>
</g>
<g>
</g>
<g>
</g>
<g>
</g>
<g>
</g>
</svg>
