<?xml version="1.0" encoding="iso-8859-1"?>
<!-- Generator: Adobe Illustrator 19.0.0, SVG Export Plug-In . SVG Version: 6.00 Build 0)  -->
<svg version="1.1" id="Layer_1" xmlns="http://www.w3.org/2000/svg" xmlns:xlink="http://www.w3.org/1999/xlink" x="0px" y="0px"
	 viewBox="0 0 295.24 295.24" style="enable-background:new 0 0 295.24 295.24;" xml:space="preserve">
<g>
	<g>
		<g>
			<path d="M214.287,147.619h-45.31l-26.119,36.571v11.048h71.429V147.619z M204.764,185.714L204.764,185.714h-51.291l20.41-28.571
				h30.881V185.714z"/>
			<path d="M219.049,147.619v47.619h71.429V184.19l-26.119-36.571H219.049z M228.572,185.714v-28.571h30.881l20.41,28.571H228.572z"
				/>
			<rect x="200.001" y="204.762" width="14.286" height="9.524"/>
			<path d="M128.572,247.619c-7.876,0-14.286,6.41-14.286,14.286c0,7.876,6.41,14.286,14.286,14.286
				c7.876,0,14.286-6.41,14.286-14.286C142.858,254.029,136.449,247.619,128.572,247.619z M128.572,266.667
				c-2.624,0-4.762-2.133-4.762-4.762c0-2.629,2.138-4.762,4.762-4.762c2.624,0,4.762,2.133,4.762,4.762
				C133.334,264.534,131.196,266.667,128.572,266.667z"/>
			<path d="M290.477,228.572v-0.001c-16.757,0-30.629,12.448-32.952,28.571h-96c-2.324-16.124-16.195-28.571-32.952-28.571
				s-30.629,12.448-32.952,28.571H80.953c-5.071,0-9.524-4.452-9.524-9.524v-9.524h23.81v-28.571H71.953
				c1.814-8.595,8.41-13.071,14.548-14.352l28.724-4.79c6.214-1.248,11.281-4.557,17.224-11.424l23.686-33.171
				c4.381-5.605,8.529-7.69,15.295-7.69h90.476c6.762,0,10.91,2.086,15.086,7.405l9.524,14.286l7.924-5.281l-9.733-14.581
				c-6.138-7.852-13.171-11.352-22.8-11.352h-80.952V90.476v-9.524V76.19c0-19.39-14.571-35.41-33.333-37.767V23.81
				c0-13.129-10.681-23.81-23.81-23.81h-76.19C34.491,0,23.811,10.681,23.811,23.81v171.429H0.001v47.619h61.905v4.762
				c0,10.324,8.724,19.048,19.048,19.048h14.667c1.067,7.41,4.552,14.043,9.671,19.048H38.096v9.524h119.048v-9.524h-5.29
				c5.114-5.005,8.6-11.638,9.671-19.048h96c1.067,7.41,4.552,14.043,9.671,19.048h-67.195v9.524h95.238v-9.524h-4.762
				c-13.129,0-23.81-10.681-23.81-23.81c0-13.129,10.681-23.81,23.81-23.81h4.762v-9.524H290.477z M171.43,80.952v9.524
				c0,2.629-2.138,4.762-4.762,4.762c-2.624,0-4.762-2.133-4.762-4.762v-9.524c0-2.629,2.138-4.762,4.762-4.762
				C169.291,76.19,171.43,78.324,171.43,80.952z M147.62,48.048c10.443,1.766,18.967,9.195,22.291,19.023
				c-1.048-0.243-2.124-0.405-3.243-0.405c-7.876,0-14.286,6.41-14.286,14.286v9.524c0,7.876,6.41,14.286,14.286,14.286
				c1.676,0,3.267-0.343,4.762-0.876v24.686c-9.633,0-16.667,3.5-22.924,11.519l-0.886,1.243V48.048z M85.716,219.047v9.524h-0.001
				H71.43v-9.524H85.716z M61.906,214.286v19.048H9.525v-0.001v-28.571h53.9C62.458,207.738,61.906,210.924,61.906,214.286z
				 M68.734,195.238h-35.4V23.81c0-7.876,6.41-14.286,14.286-14.286h76.19c7.876,0,14.286,6.41,14.286,14.286v130.871
				l-13.119,18.386c-4.276,4.924-7.538,7.162-11.476,7.952l-28.757,4.795C78.187,187.181,72.706,190.562,68.734,195.238z
				 M128.572,285.714c-13.129,0-23.81-10.681-23.81-23.81c0-13.129,10.681-23.81,23.81-23.81c13.129,0,23.81,10.681,23.81,23.81
				C152.382,275.033,141.701,285.714,128.572,285.714z"/>
			<path d="M276.191,261.905c0,7.876,6.41,14.286,14.286,14.286h4.762v-9.524h-4.762c-2.624,0-4.762-2.133-4.762-4.762
				c0-2.629,2.138-4.762,4.762-4.762h4.762v-9.524h-4.762C282.601,247.619,276.191,254.029,276.191,261.905z"/>
			<rect x="180.953" y="285.714" width="9.524" height="9.524"/>
			<rect x="18.453" y="285.714" width="9.524" height="9.524"/>
			<path d="M128.572,19.048H42.858V76.19h85.714V19.048z M119.049,66.667H52.382V28.571h66.667
				C119.049,28.571,119.049,66.667,119.049,66.667z"/>
			<rect x="42.858" y="85.714" width="85.714" height="9.524"/>
			<rect x="42.858" y="104.762" width="19.048" height="9.524"/>
			<rect x="109.525" y="104.762" width="19.048" height="9.524"/>
			<rect x="0.001" y="285.714" width="9.524" height="9.524"/>
		</g>
	</g>
</g>
<g>
</g>
<g>
</g>
<g>
</g>
<g>
</g>
<g>
</g>
<g>
</g>
<g>
</g>
<g>
</g>
<g>
</g>
<g>
</g>
<g>
</g>
<g>
</g>
<g>
</g>
<g>
</g>
<g>
</g>
</svg>
