<?xml version="1.0" encoding="iso-8859-1"?>
<!-- Generator: Adobe Illustrator 19.0.0, SVG Export Plug-In . SVG Version: 6.00 Build 0)  -->
<svg version="1.1" id="Layer_1" xmlns="http://www.w3.org/2000/svg" xmlns:xlink="http://www.w3.org/1999/xlink" x="0px" y="0px"
	 viewBox="0 0 295.24 295.24" style="enable-background:new 0 0 295.24 295.24;" xml:space="preserve">
<g>
	<g>
		<g>
			<path d="M169.143,71.43l-26.671,33.333h110.581L225.167,71.43H169.143z M190.476,95.239H162.29l11.424-14.286h16.762V95.239z
				 M200,95.239V80.953h20.719l11.948,14.286H200z"/>
			<path d="M270.949,152.382h14.767c6.486,0,9.238-5.486,9.524-9.524v-33.333c-0.002-7.214-6.721-12.876-13.092-14.148
				l-14.314-4.757c-1.348-0.338-2.776-2.31-4.29-4.405c-0.886-1.219-1.795-2.467-2.59-3.357L246.61,63.734
				c-5.152-6.59-12.295-6.59-18.038-6.59h-61.905c-5.743,0-12.886,0-18.095,6.667L134.5,82.587
				c-2.876,3.305-9.276,7.51-11.624,7.981L99.4,95.258c-5.657,0.39-13.686,4.414-13.686,14.267v33.333
				c0,3.886,1.643,6.148,3.019,7.362c2.133,1.871,4.643,2.186,6.071,2.186c0.248,0,0.462-0.01,0.638-0.024h19.324
				c2.214,10.857,11.833,19.048,23.329,19.048c11.496,0,21.114-8.19,23.329-19.048h62.867c2.214,10.857,11.833,19.048,23.329,19.048
				C259.115,171.43,268.734,161.906,270.949,152.382z M138.095,161.906c-7.876,0-14.286-6.414-14.286-14.29
				c0-7.871,6.41-14.281,14.286-14.281c7.876,0,14.286,6.41,14.286,14.281C152.381,155.491,145.971,161.906,138.095,161.906z
				 M247.619,161.906c-7.876,0-14.286-6.414-14.286-14.29c0-7.871,6.41-14.281,14.286-14.281s14.286,6.41,14.286,14.281
				C261.905,155.491,255.495,161.906,247.619,161.906z M247.619,123.81c-11.5,0-21.119,8.19-23.329,19.048h-62.867
				c-2.21-10.857-11.829-19.048-23.329-19.048s-21.119,8.19-23.329,19.048H95.238v-19.047h9.524v-9.524h-9.524v-4.762
				c0-3.89,3.124-4.657,4.933-4.767l24.567-4.852c5.49-1.09,13.576-7.186,17.162-11.338l14.229-18.971
				c2.09-2.662,4.681-2.929,10.538-2.929h61.905c5.857,0,8.448,0.267,10.476,2.857l14.5,19.319c0.824,0.948,1.557,1.971,2.281,2.967
				c2.329,3.219,4.971,6.862,9.329,7.948l14.286,4.762l0.705,0.176c2.705,0.462,5.567,2.943,5.567,4.829l0.014,32.986
				c-0.001,0.003-0.087,0.299-0.044,0.346l-14.738-0.005C268.734,132.001,259.115,123.81,247.619,123.81z"/>
			<rect x="185.714" y="109.525" width="9.524" height="9.524"/>
			<path d="M138.095,171.43H76.19V66.668H14.286C6.41,66.668,0,73.077,0,80.953v114.286c0,7.876,6.41,14.286,14.286,14.286h28.571
				c0,14.129,10.319,25.862,23.81,28.143v0.429h228.571v-9.524h-35.905c4.543-5.062,7.333-11.724,7.333-19.048h28.571V171.43H247.62
				h-0.002H138.095z M44.524,200.001H14.286c-2.629,0-4.762-2.133-4.762-4.762v-14.286h19.048v-14.286h-9.524v4.762H9.524V80.953
				c0-2.629,2.133-4.762,4.762-4.762h52.381v95.238v9.952C56.367,183.125,47.943,190.372,44.524,200.001z M71.429,228.573
				c-10.505,0-19.048-8.543-19.048-19.048s8.543-19.048,19.048-19.048s19.048,8.543,19.048,19.048S81.934,228.573,71.429,228.573z
				 M92.667,228.573c4.543-5.062,7.333-11.724,7.333-19.048h42.857c0,7.324,2.79,13.986,7.333,19.048H92.667z M171.429,228.573
				c-10.505-0.001-19.048-8.543-19.048-19.048s8.543-19.048,19.048-19.048s19.048,8.543,19.048,19.048
				S181.934,228.573,171.429,228.573z M192.667,228.573c4.543-5.062,7.333-11.724,7.333-19.048h9.524
				c0,7.324,2.79,13.986,7.333,19.048H192.667z M238.096,228.573c-10.506-0.001-19.048-8.543-19.048-19.048
				s8.543-19.048,19.048-19.048s19.048,8.543,19.048,19.048S248.601,228.573,238.096,228.573z M285.714,180.953v19.048H265
				c-3.933-11.081-14.49-19.048-26.905-19.048c-12.414,0-22.971,7.967-26.905,19.048h-12.857
				c-3.933-11.081-14.49-19.048-26.905-19.048c-12.414,0-22.971,7.967-26.905,19.048h-46.19
				c-3.419-9.629-11.843-16.876-22.143-18.619v-0.429h95.238h66.667H285.714z"/>
			<path d="M19.048,142.858h38.095V90.477H19.048V142.858z M28.571,100.001h19.048v33.333H28.571V100.001z"/>
			<rect x="47.619" y="147.62" width="9.524" height="9.524"/>
			<rect y="257.144" width="109.524" height="9.524"/>
			<rect x="85.714" y="285.715" width="209.524" height="9.524"/>
			<rect x="42.857" y="0.001" width="133.333" height="9.524"/>
			<path d="M276.19,9.525c5.252,0,9.524,4.271,9.524,9.524c0,5.253-4.271,9.524-9.524,9.524H157.143v9.524H276.19
				c10.505,0,19.048-8.543,19.048-19.048S286.695,0.001,276.19,0.001s-19.048,8.543-19.048,19.048h9.524
				C266.667,13.796,270.938,9.525,276.19,9.525z"/>
			<rect x="138.095" y="28.572" width="9.524" height="9.524"/>
			<rect x="23.81" y="0.001" width="9.524" height="9.524"/>
			<rect x="4.762" y="0.001" width="9.524" height="9.524"/>
			<rect x="119.048" y="257.144" width="9.524" height="9.524"/>
			<rect x="138.095" y="257.144" width="23.81" height="9.524"/>
		</g>
	</g>
</g>
<g>
</g>
<g>
</g>
<g>
</g>
<g>
</g>
<g>
</g>
<g>
</g>
<g>
</g>
<g>
</g>
<g>
</g>
<g>
</g>
<g>
</g>
<g>
</g>
<g>
</g>
<g>
</g>
<g>
</g>
</svg>
