<?xml version="1.0" encoding="iso-8859-1"?>
<!-- Generator: Adobe Illustrator 19.0.0, SVG Export Plug-In . SVG Version: 6.00 Build 0)  -->
<svg version="1.1" id="Layer_1" xmlns="http://www.w3.org/2000/svg" xmlns:xlink="http://www.w3.org/1999/xlink" x="0px" y="0px"
	 viewBox="0 0 295.239 295.239" style="enable-background:new 0 0 295.239 295.239;" xml:space="preserve">
<g>
	<g>
		<g>
			<path d="M271.43,0H23.811C10.682,0,0.001,10.681,0.001,23.81v271.429h9.524v-66.667C9.524,212.814,22.339,200,38.096,200h187.533
				l-4.762,9.524H52.381v9.524h190.476v-9.524h-11.343l4.762-9.524h20.867c15.757,0,28.571,12.814,28.571,28.571v66.667h9.524V23.81
				C295.239,10.681,284.557,0,271.43,0z M271.429,185.714c0,2.624-2.138,4.762-4.762,4.762h-25.628l21.248-42.49l-8.743-26.238
				l7.814-14.757l-8.419-4.457l-9.476,17.9l-0.357,0.119l0.114,0.338l-33.138,62.59l8.419,4.457l8.271-15.629l11.29,2.824
				l-7.671,15.343H28.571c-2.624,0-4.762-2.138-4.762-4.762V57.143c0-2.624,2.138-4.762,4.762-4.762h238.095
				c2.624,0,4.762,2.138,4.762,4.762V185.714z M231.352,163.642l16.019-30.262l4.629,13.872l-9.581,19.157L231.352,163.642z
				 M285.715,203.458c-2.609-2.963-5.666-5.51-9.066-7.548c2.648-2.595,4.305-6.2,4.305-10.195V57.143
				c0-7.876-6.41-14.286-14.286-14.286H28.571c-7.876,0-14.286,6.41-14.286,14.286v128.571c0,3.995,1.657,7.6,4.305,10.195
				c-3.4,2.038-6.457,4.586-9.067,7.548V23.81c0-7.876,6.41-14.286,14.286-14.286h247.619c7.876,0,14.286,6.41,14.286,14.286
				V203.458z"/>
			<path d="M147.62,61.905c-41.486,0-76.586,14.11-98.833,39.733l-2.148,2.476l41.852,78.471l4.176-2.167
				c35.195-18.248,74.705-18.252,109.9,0l4.176,2.167l41.852-78.471l-2.148-2.476C224.211,76.014,189.11,61.905,147.62,61.905z
				 M202.739,169.867c-17.543-8.338-36.5-12.724-55.114-12.724c-18.9,0-37.424,4.276-55.124,12.724l-10.705-20.071
				c16.876-10.314,39.371-16.462,61.062-16.462v-9.524c-31.586,0-54.524,10.867-65.586,17.505l-19.119-35.848
				c20.51-21.976,52.129-34.038,89.467-34.038c37.343,0,68.962,12.062,89.467,34.038L202.739,169.867z"/>
			<rect x="152.381" y="123.81" width="9.524" height="9.524"/>
			<rect x="23.811" y="271.429" width="9.524" height="9.524"/>
			<rect x="42.857" y="271.429" width="9.524" height="9.524"/>
			<rect x="61.906" y="271.429" width="9.524" height="9.524"/>
			<rect x="252.381" y="23.81" width="9.524" height="9.524"/>
			<rect x="233.334" y="23.81" width="9.524" height="9.524"/>
		</g>
	</g>
</g>
<g>
</g>
<g>
</g>
<g>
</g>
<g>
</g>
<g>
</g>
<g>
</g>
<g>
</g>
<g>
</g>
<g>
</g>
<g>
</g>
<g>
</g>
<g>
</g>
<g>
</g>
<g>
</g>
<g>
</g>
</svg>
